# xmcd
#
# Track frame offsets: 
#        150
#        16355
#        34156
#        54310
#        76415
#        95360
#        121842
#        139800
#        159589
#        163536
#        189804
#        203794
#        224374
#        240687
#        266671
#        282886
#        299150
#
# Disc length: 4177 seconds
#
# Revision: 1
# Processed by: cddbd v1.5.2PL0 Copyright (c) Steve Scherf et al.
# Submitted via: ExactAudioCopy v0.99pb5
#
DISCID=f2104f11
DTITLE=Steely Dan - Everything Must Go
DYEAR=2003
DGENRE=Country
TTITLE0=The Last Mall
TTITLE1=Things I Miss The Most
TTITLE2=Blues Beach
TTITLE3=Godwhacker
TTITLE4=Slang Of Ages
TTITLE5=Green Book
TTITLE6=Pixeleen
TTITLE7=Lunch With Gina
TTITLE8=Everything Must Go
TTITLE9=Do It Again
TTITLE10=Dirty Work
TTITLE11=Reelin' In The Year
TTITLE12=Night By Night
TTITLE13=My Old School
TTITLE14=Black Friday
TTITLE15=Change Of The Guard
TTITLE16=Any World That I'm Welcome To
EXTD=
EXTT0=
EXTT1=
EXTT2=
EXTT3=
EXTT4=
EXTT5=
EXTT6=
EXTT7=
EXTT8=
EXTT9=
EXTT10=
EXTT11=
EXTT12=
EXTT13=
EXTT14=
EXTT15=
EXTT16=
PLAYORDER=
